{"title":"G.I. Joe Retaliation-(2013)-Triple Audio-Hindi+English+latin-Blu","uid":8764727,"size":3096984477,"categoryP":"video","categoryS":"hd___movies","magnet":"?xt=urn:btih:dfd5565a53efa337a5ce5c6c98a219a69187d00b&amp;dn=G.I.+Joe+Retaliation-%282013%29-Triple+Audio-Hindi%2BEnglish%2Blatin-Blu&amp;tr=udp%3A%2F%2Ftracker.openbittorrent.com%3A80&amp;tr=udp%3A%2F%2Fopen.demonii.com%3A1337&amp;tr=udp%3A%2F%2Ftracker.coppersurfer.tk%3A6969&amp;tr=udp%3A%2F%2Fexodus.desync.com%3A6969","seeders":1,"leechers":0,"uploader":"NokiaAnir","files":12,"time":1375309908,"description":"General\nFormat                           : Matrosk\nFile size                        : 2.88 GiB\nDuration                         : 1h 50mn\nOverall bit rate                 : 3 733 Kbps\nEncoded date                     : UTC 2013-07-31 20:02:07\nWriting applicaion              : mkvmerge v4.4.0 ('Die Wiederkehr') built on Oct 31 2010 21:52:48\nWriting library                  : libebml v1.0.0 + libmatroska v1.0.0\n\nVideo\nID                               : 5\nFormat                           : AVC\nFormat/Info                      : Advanced Video Codec\nFormat profile                   : &lt;a class=&quot;__cf_email__&quot; href=&quot;/cdn-cgi/l/email-protection&quot; data-cfemail=&quot;bdf5d4dad5fdf189938c&quot;&gt;[email&amp;#160;protected]&lt;/a&gt;&lt;script cf-hash='f9e31' type=&quot;text/javascript&quot;&gt;\n/* &lt;![CDATA[ */!function(){try{var t=&quot;currentScript&quot;in document?document.currentScript:function(){for(var t=document.getElementsByTagName(&quot;script&quot;),e=t.length;e--;)if(t[e].getAttribute(&quot;cf-hash&quot;))return t[e]}();if(t&amp;&amp;t.previousSibling){var e,r,n,i,c=t.previousSibling,a=c.getAttribute(&quot;data-cfemail&quot;);if(a){for(e=&quot;&quot;,r=parseInt(a.substr(0,2),16),n=2;a.length-n;n+=2)i=parseInt(a.substr(n,2),16)^r,e+=String.fromCharCode(i);e=document.createTextNode(e),c.parentNode.replaceChild(e,c)}}}catch(u){}}();/* ]]&gt; */&lt;/script&gt;\nFormat settings, CABAC           : Yes\nFormat settings, ReFrames        : 5 frames\nMuxing mode                      : Header stripping\nCodec ID                         : V_MPEG4/ISO/AVC\nDuration                         : 1h 50mn\nBit rate                         : 2 763 Kbps\nWidth                            : 1 280 pixels\nHeight                           : 534 pixels\nDisplay aspect ratio             : 2.35:1\nFrame rate                       : 23.976 fps\nColor space                      : YUV\nChroma subsampling               : 4:2:0\nBit depth                        : 8 bits\nScan type                        : Progressive\nBits/(Pixel*Frame)               : 0.169\nStream size                      : 2.13 GiB (74%)\nWriting library                  : x264 core 133 r2334 a3ac64b\nLanguage                         : English\n\nAudio #1\nID                               : 1\nFormat                           : AC-3\nFormat/Info                      : Audio Coding 3\nMode extension                   : CM (complete main)\nMuxing mode                      : Header stripping\nCodec ID                         : A_AC3\nDuration                         : 1h 50mn\nBit rate mode                    : Constant\nBit rate                         : 640 Kbps\nChannel(s)                       : 6 channels\nChannel positions                : Front: L C R, Side: L R, LFE\nSampling rate                    : 48.0 KHz\nBit depth                        : 16 bits\nCompression mode                 : Lossy\nStream size                      : 505 MiB (17%)\nTitle                            : hindi\nLanguage                         : Hindi\n\nAudio #2\nID                               : 7\nFormat                           : MPEG Audio\nFormat version                   : Version 1\nFormat profile                   : Layer 3\nMode                             : Joint stereo\nMode extension                   : MS Stereo\nMuxing mode                      : Header stripping\nCodec ID                         : A_MPEG/L3\nCodec ID/Hint                    : MP3\nDuration                         : 1h 50mn\nBit rate mode                    : Constant\nBit rate                         : 128 Kbps\nChannel(s)                       : 2 channels\nSampling rate                    : 48.0 KHz\nCompression mode                 : Lossy\nStream size                      : 101 MiB (3%)\nTitle                            : english\nWriting library                  : LAME3.97\n\nAudio #3\nID                               : 8\nFormat                           : MPEG Audio\nFormat version                   : Version 1\nFormat profile                   : Layer 3\nMode                             : Joint stereo\nMuxing mode                      : Header stripping\nCodec ID                         : A_MPEG/L3\nCodec ID/Hint                    : MP3\nDuration                         : 1h 50mn\nBit rate mode                    : Constant\nBit rate                         : 128 Kbps\nChannel(s)                       : 2 channels\nSampling rate                    : 44.1 KHz\nCompression mode                 : Lossy\nStream size                      : 101 MiB (3%)\nTitle                            : latin\nWriting library                  : LAME3.98.2","torrent":{"xt":"urn:btih:dfd5565a53efa337a5ce5c6c98a219a69187d00b","amp;dn":"G.I.+Joe+Retaliation-%282013%29-Triple+Audio-Hindi%2BEnglish%2Blatin-Blu","amp;tr":["udp%3A%2F%2Ftracker.openbittorrent.com%3A80","udp%3A%2F%2Fopen.demonii.com%3A1337","udp%3A%2F%2Ftracker.coppersurfer.tk%3A6969","udp%3A%2F%2Fexodus.desync.com%3A6969"],"infoHash":"dfd5565a53efa337a5ce5c6c98a219a69187d00b","infoHashBuffer":{"type":"Buffer","data":[223,213,86,90,83,239,163,55,165,206,92,108,152,162,25,166,145,135,208,11]},"announce":[],"urlList":[]}}